<?xml version="1.0" encoding="UTF-8" standalone="no"?>
<!DOCTYPE svg PUBLIC "-//W3C//DTD SVG 1.1//EN"
 "http://www.w3.org/Graphics/SVG/1.1/DTD/svg11.dtd">
<!-- Generated by graphviz version 2.43.0 (0)
 -->
<!-- Title: ad9081_zcu102_wiring Pages: 1 -->
<svg width="395pt" height="390pt"
 viewBox="0.00 0.00 395.00 390.00" xmlns="http://www.w3.org/2000/svg" xmlns:xlink="http://www.w3.org/1999/xlink">
<g id="graph0" class="graph" transform="scale(1 1) rotate(0) translate(4 386)">
<title>ad9081_zcu102_wiring</title>
<polygon fill="#1a1a1a" stroke="transparent" points="-4,4 -4,-386 391,-386 391,4 -4,4"/>
<!-- spi0 -->
<g id="node1" class="node">
<title>spi0</title>
<ellipse fill="#2a4d6e" stroke="#000000" cx="68" cy="-18" rx="29.8" ry="18"/>
<text text-anchor="middle" x="68" y="-14.3" font-family="Helvetica,sans-Serif" font-size="14.00" fill="#ffffff">spi0</text>
</g>
<!-- hmc7044 -->
<g id="node2" class="node">
<title>hmc7044</title>
<path fill="#1a3d5c" stroke="#000000" d="M348.5,-36C348.5,-36 289.5,-36 289.5,-36 283.5,-36 277.5,-30 277.5,-24 277.5,-24 277.5,-12 277.5,-12 277.5,-6 283.5,0 289.5,0 289.5,0 348.5,0 348.5,0 354.5,0 360.5,-6 360.5,-12 360.5,-12 360.5,-24 360.5,-24 360.5,-30 354.5,-36 348.5,-36"/>
<text text-anchor="middle" x="319" y="-14.3" font-family="Helvetica,sans-Serif" font-size="14.00" fill="#ffffff">hmc7044</text>
</g>
<!-- spi0&#45;&gt;hmc7044 -->
<g id="edge1" class="edge">
<title>spi0&#45;&gt;hmc7044</title>
<path fill="none" stroke="#4ac4d8" d="M98.05,-18C139.46,-18 216.07,-18 267.04,-18"/>
<polygon fill="#4ac4d8" stroke="#4ac4d8" points="267.19,-21.5 277.19,-18 267.19,-14.5 267.19,-21.5"/>
<text text-anchor="middle" x="193.5" y="-21" font-family="Helvetica,sans-Serif" font-size="10.00" fill="#4ac4d8">cs=0</text>
</g>
<!-- spi1 -->
<g id="node3" class="node">
<title>spi1</title>
<ellipse fill="#2a4d6e" stroke="#000000" cx="68" cy="-256" rx="29.8" ry="18"/>
<text text-anchor="middle" x="68" y="-252.3" font-family="Helvetica,sans-Serif" font-size="14.00" fill="#ffffff">spi1</text>
</g>
<!-- trx0_ad9081 -->
<g id="node4" class="node">
<title>trx0_ad9081</title>
<path fill="#5c1a1a" stroke="#000000" d="M359,-172C359,-172 279,-172 279,-172 273,-172 267,-166 267,-160 267,-160 267,-148 267,-148 267,-142 273,-136 279,-136 279,-136 359,-136 359,-136 365,-136 371,-142 371,-148 371,-148 371,-160 371,-160 371,-166 365,-172 359,-172"/>
<text text-anchor="middle" x="319" y="-150.3" font-family="Helvetica,sans-Serif" font-size="14.00" fill="#ffffff">trx0_ad9081</text>
</g>
<!-- spi1&#45;&gt;trx0_ad9081 -->
<g id="edge2" class="edge">
<title>spi1&#45;&gt;trx0_ad9081</title>
<path fill="none" stroke="#4ac4d8" d="M97.84,-254.11C131.64,-250.98 188.66,-242.85 233,-222 255.49,-211.43 277.3,-193.78 293.19,-179.11"/>
<polygon fill="#4ac4d8" stroke="#4ac4d8" points="295.64,-181.61 300.5,-172.19 290.83,-176.52 295.64,-181.61"/>
<text text-anchor="middle" x="193.5" y="-249" font-family="Helvetica,sans-Serif" font-size="10.00" fill="#4ac4d8">cs=0</text>
</g>
<!-- trx0_ad9081_adc -->
<g id="node5" class="node">
<title>trx0_ad9081_adc</title>
<path fill="#5c1a1a" stroke="#000000" d="M124,-328C124,-328 12,-328 12,-328 6,-328 0,-322 0,-316 0,-316 0,-304 0,-304 0,-298 6,-292 12,-292 12,-292 124,-292 124,-292 130,-292 136,-298 136,-304 136,-304 136,-316 136,-316 136,-322 130,-328 124,-328"/>
<text text-anchor="middle" x="68" y="-306.3" font-family="Helvetica,sans-Serif" font-size="14.00" fill="#ffffff">trx0_ad9081_adc</text>
</g>
<!-- zcu102_gt0 -->
<g id="node6" class="node">
<title>zcu102_gt0</title>
<path fill="#2a2a2a" stroke="#000000" d="M356,-328C356,-328 282,-328 282,-328 276,-328 270,-322 270,-316 270,-316 270,-304 270,-304 270,-298 276,-292 282,-292 282,-292 356,-292 356,-292 362,-292 368,-298 368,-304 368,-304 368,-316 368,-316 368,-322 362,-328 356,-328"/>
<text text-anchor="middle" x="319" y="-306.3" font-family="Helvetica,sans-Serif" font-size="14.00" fill="#ffffff">zcu102_gt0</text>
</g>
<!-- trx0_ad9081_adc&#45;&gt;zcu102_gt0 -->
<g id="edge3" class="edge">
<title>trx0_ad9081_adc&#45;&gt;zcu102_gt0</title>
<path fill="none" stroke="#44cc44" d="M136.05,-310C174.63,-310 222.64,-310 259.65,-310"/>
<polygon fill="#44cc44" stroke="#44cc44" points="259.78,-313.5 269.78,-310 259.78,-306.5 259.78,-313.5"/>
<text text-anchor="middle" x="193.5" y="-313" font-family="Helvetica,sans-Serif" font-size="10.00" fill="#44cc44">JESD204</text>
</g>
<!-- zcu102_gt1 -->
<g id="node7" class="node">
<title>zcu102_gt1</title>
<path fill="#2a2a2a" stroke="#000000" d="M105,-382C105,-382 31,-382 31,-382 25,-382 19,-376 19,-370 19,-370 19,-358 19,-358 19,-352 25,-346 31,-346 31,-346 105,-346 105,-346 111,-346 117,-352 117,-358 117,-358 117,-370 117,-370 117,-376 111,-382 105,-382"/>
<text text-anchor="middle" x="68" y="-360.3" font-family="Helvetica,sans-Serif" font-size="14.00" fill="#ffffff">zcu102_gt1</text>
</g>
<!-- trx0_ad9081_dac -->
<g id="node8" class="node">
<title>trx0_ad9081_dac</title>
<path fill="#5c1a1a" stroke="#000000" d="M375,-382C375,-382 263,-382 263,-382 257,-382 251,-376 251,-370 251,-370 251,-358 251,-358 251,-352 257,-346 263,-346 263,-346 375,-346 375,-346 381,-346 387,-352 387,-358 387,-358 387,-370 387,-370 387,-376 381,-382 375,-382"/>
<text text-anchor="middle" x="319" y="-360.3" font-family="Helvetica,sans-Serif" font-size="14.00" fill="#ffffff">trx0_ad9081_dac</text>
</g>
<!-- zcu102_gt1&#45;&gt;trx0_ad9081_dac -->
<g id="edge4" class="edge">
<title>zcu102_gt1&#45;&gt;trx0_ad9081_dac</title>
<path fill="none" stroke="#44cc44" d="M117.01,-364C152.06,-364 200.3,-364 240.74,-364"/>
<polygon fill="#44cc44" stroke="#44cc44" points="240.84,-367.5 250.84,-364 240.84,-360.5 240.84,-367.5"/>
<text text-anchor="middle" x="193.5" y="-367" font-family="Helvetica,sans-Serif" font-size="10.00" fill="#44cc44">JESD204</text>
</g>
<!-- gpio -->
<g id="node9" class="node">
<title>gpio</title>
<ellipse fill="#6e4d2a" stroke="#000000" cx="68" cy="-137" rx="30.59" ry="18"/>
<text text-anchor="middle" x="68" y="-133.3" font-family="Helvetica,sans-Serif" font-size="14.00" fill="#ffffff">gpio</text>
</g>
<!-- gpio&#45;&gt;trx0_ad9081 -->
<g id="edge5" class="edge">
<title>gpio&#45;&gt;trx0_ad9081</title>
<path fill="none" stroke="#cc9944" d="M83.83,-152.76C99.54,-168.2 125.92,-190.73 154,-200 187.34,-211.01 198.96,-208.62 233,-200 250.78,-195.5 268.87,-186.45 283.77,-177.57"/>
<polygon fill="#cc9944" stroke="#cc9944" points="285.95,-180.34 292.6,-172.1 282.26,-174.39 285.95,-180.34"/>
<text text-anchor="middle" x="193.5" y="-210" font-family="Helvetica,sans-Serif" font-size="10.00" fill="#cc9944">reset=133</text>
</g>
<!-- gpio&#45;&gt;trx0_ad9081 -->
<g id="edge6" class="edge">
<title>gpio&#45;&gt;trx0_ad9081</title>
<path fill="none" stroke="#cc9944" d="M93,-147.56C109.73,-154.33 132.77,-162.48 154,-166 187.65,-171.58 225.62,-169.34 256.54,-165.36"/>
<polygon fill="#cc9944" stroke="#cc9944" points="257.32,-168.79 266.74,-163.95 256.36,-161.85 257.32,-168.79"/>
<text text-anchor="middle" x="193.5" y="-173" font-family="Helvetica,sans-Serif" font-size="10.00" fill="#cc9944">sysref&#45;req=121</text>
</g>
<!-- gpio&#45;&gt;trx0_ad9081 -->
<g id="edge7" class="edge">
<title>gpio&#45;&gt;trx0_ad9081</title>
<path fill="none" stroke="#cc9944" d="M98.54,-139.02C137.35,-141.67 206.46,-146.38 256.78,-149.82"/>
<polygon fill="#cc9944" stroke="#cc9944" points="256.69,-153.32 266.9,-150.51 257.16,-146.34 256.69,-153.32"/>
<text text-anchor="middle" x="193.5" y="-152" font-family="Helvetica,sans-Serif" font-size="10.00" fill="#cc9944">rx1&#45;enable=134</text>
</g>
<!-- gpio&#45;&gt;trx0_ad9081 -->
<g id="edge8" class="edge">
<title>gpio&#45;&gt;trx0_ad9081</title>
<path fill="none" stroke="#cc9944" d="M97.61,-131.94C130.46,-126.93 185.9,-120.96 233,-128 241.23,-129.23 249.76,-131.1 258.1,-133.27"/>
<polygon fill="#cc9944" stroke="#cc9944" points="257.21,-136.66 267.78,-135.95 259.08,-129.91 257.21,-136.66"/>
<text text-anchor="middle" x="193.5" y="-131" font-family="Helvetica,sans-Serif" font-size="10.00" fill="#cc9944">rx2&#45;enable=135</text>
</g>
<!-- gpio&#45;&gt;trx0_ad9081 -->
<g id="edge9" class="edge">
<title>gpio&#45;&gt;trx0_ad9081</title>
<path fill="none" stroke="#cc9944" d="M93.44,-127.03C110.17,-120.75 133.04,-113.25 154,-110 188.7,-104.62 198.89,-101.69 233,-110 250.11,-114.17 267.63,-122.43 282.28,-130.68"/>
<polygon fill="#cc9944" stroke="#cc9944" points="280.6,-133.75 291,-135.77 284.13,-127.71 280.6,-133.75"/>
<text text-anchor="middle" x="193.5" y="-113" font-family="Helvetica,sans-Serif" font-size="10.00" fill="#cc9944">tx1&#45;enable=136</text>
</g>
<!-- gpio&#45;&gt;trx0_ad9081 -->
<g id="edge10" class="edge">
<title>gpio&#45;&gt;trx0_ad9081</title>
<path fill="none" stroke="#cc9944" d="M87.73,-122.98C104.2,-111.57 129.35,-96.36 154,-90 188,-81.23 199.7,-78.87 233,-90 255.97,-97.68 277.72,-114.29 293.46,-128.66"/>
<polygon fill="#cc9944" stroke="#cc9944" points="291.45,-131.58 301.12,-135.91 296.26,-126.5 291.45,-131.58"/>
<text text-anchor="middle" x="193.5" y="-93" font-family="Helvetica,sans-Serif" font-size="10.00" fill="#cc9944">tx2&#45;enable=137</text>
</g>
</g>
</svg>
