<?xml version="1.0" encoding="UTF-8" standalone="no"?>
<!DOCTYPE svg PUBLIC "-//W3C//DTD SVG 1.1//EN"
 "http://www.w3.org/Graphics/SVG/1.1/DTD/svg11.dtd">
<!-- Generated by graphviz version 2.43.0 (0)
 -->
<!-- Title: ad9081_zcu102_jesd_gpio_wiring Pages: 1 -->
<svg width="395pt" height="379pt"
 viewBox="0.00 0.00 395.00 379.00" xmlns="http://www.w3.org/2000/svg" xmlns:xlink="http://www.w3.org/1999/xlink">
<g id="graph0" class="graph" transform="scale(1 1) rotate(0) translate(4 375)">
<title>ad9081_zcu102_jesd_gpio_wiring</title>
<polygon fill="#1a1a1a" stroke="transparent" points="-4,4 -4,-375 391,-375 391,4 -4,4"/>
<!-- spi0 -->
<g id="node1" class="node">
<title>spi0</title>
<ellipse fill="#2a4d6e" stroke="#000000" cx="68" cy="-18" rx="29.8" ry="18"/>
<text text-anchor="middle" x="68" y="-14.3" font-family="Helvetica,sans-Serif" font-size="14.00" fill="#ffffff">spi0</text>
</g>
<!-- hmc7044 -->
<g id="node2" class="node">
<title>hmc7044</title>
<path fill="#1a3d5c" stroke="#000000" d="M97.5,-90C97.5,-90 38.5,-90 38.5,-90 32.5,-90 26.5,-84 26.5,-78 26.5,-78 26.5,-66 26.5,-66 26.5,-60 32.5,-54 38.5,-54 38.5,-54 97.5,-54 97.5,-54 103.5,-54 109.5,-60 109.5,-66 109.5,-66 109.5,-78 109.5,-78 109.5,-84 103.5,-90 97.5,-90"/>
<text text-anchor="middle" x="68" y="-68.3" font-family="Helvetica,sans-Serif" font-size="14.00" fill="#ffffff">hmc7044</text>
</g>
<!-- spi1 -->
<g id="node3" class="node">
<title>spi1</title>
<ellipse fill="#2a4d6e" stroke="#000000" cx="68" cy="-126" rx="29.8" ry="18"/>
<text text-anchor="middle" x="68" y="-122.3" font-family="Helvetica,sans-Serif" font-size="14.00" fill="#ffffff">spi1</text>
</g>
<!-- trx0_ad9081 -->
<g id="node4" class="node">
<title>trx0_ad9081</title>
<path fill="#5c1a1a" stroke="#000000" d="M359,-198C359,-198 279,-198 279,-198 273,-198 267,-192 267,-186 267,-186 267,-174 267,-174 267,-168 273,-162 279,-162 279,-162 359,-162 359,-162 365,-162 371,-168 371,-174 371,-174 371,-186 371,-186 371,-192 365,-198 359,-198"/>
<text text-anchor="middle" x="319" y="-176.3" font-family="Helvetica,sans-Serif" font-size="14.00" fill="#ffffff">trx0_ad9081</text>
</g>
<!-- trx0_ad9081_adc -->
<g id="node5" class="node">
<title>trx0_ad9081_adc</title>
<path fill="#5c1a1a" stroke="#000000" d="M124,-317C124,-317 12,-317 12,-317 6,-317 0,-311 0,-305 0,-305 0,-293 0,-293 0,-287 6,-281 12,-281 12,-281 124,-281 124,-281 130,-281 136,-287 136,-293 136,-293 136,-305 136,-305 136,-311 130,-317 124,-317"/>
<text text-anchor="middle" x="68" y="-295.3" font-family="Helvetica,sans-Serif" font-size="14.00" fill="#ffffff">trx0_ad9081_adc</text>
</g>
<!-- zcu102_gt0 -->
<g id="node6" class="node">
<title>zcu102_gt0</title>
<path fill="#2a2a2a" stroke="#000000" d="M356,-317C356,-317 282,-317 282,-317 276,-317 270,-311 270,-305 270,-305 270,-293 270,-293 270,-287 276,-281 282,-281 282,-281 356,-281 356,-281 362,-281 368,-287 368,-293 368,-293 368,-305 368,-305 368,-311 362,-317 356,-317"/>
<text text-anchor="middle" x="319" y="-295.3" font-family="Helvetica,sans-Serif" font-size="14.00" fill="#ffffff">zcu102_gt0</text>
</g>
<!-- trx0_ad9081_adc&#45;&gt;zcu102_gt0 -->
<g id="edge1" class="edge">
<title>trx0_ad9081_adc&#45;&gt;zcu102_gt0</title>
<path fill="none" stroke="#44cc44" d="M136.05,-299C174.63,-299 222.64,-299 259.65,-299"/>
<polygon fill="#44cc44" stroke="#44cc44" points="259.78,-302.5 269.78,-299 259.78,-295.5 259.78,-302.5"/>
<text text-anchor="middle" x="193.5" y="-302" font-family="Helvetica,sans-Serif" font-size="10.00" fill="#44cc44">JESD204</text>
</g>
<!-- zcu102_gt1 -->
<g id="node7" class="node">
<title>zcu102_gt1</title>
<path fill="#2a2a2a" stroke="#000000" d="M105,-371C105,-371 31,-371 31,-371 25,-371 19,-365 19,-359 19,-359 19,-347 19,-347 19,-341 25,-335 31,-335 31,-335 105,-335 105,-335 111,-335 117,-341 117,-347 117,-347 117,-359 117,-359 117,-365 111,-371 105,-371"/>
<text text-anchor="middle" x="68" y="-349.3" font-family="Helvetica,sans-Serif" font-size="14.00" fill="#ffffff">zcu102_gt1</text>
</g>
<!-- trx0_ad9081_dac -->
<g id="node8" class="node">
<title>trx0_ad9081_dac</title>
<path fill="#5c1a1a" stroke="#000000" d="M375,-371C375,-371 263,-371 263,-371 257,-371 251,-365 251,-359 251,-359 251,-347 251,-347 251,-341 257,-335 263,-335 263,-335 375,-335 375,-335 381,-335 387,-341 387,-347 387,-347 387,-359 387,-359 387,-365 381,-371 375,-371"/>
<text text-anchor="middle" x="319" y="-349.3" font-family="Helvetica,sans-Serif" font-size="14.00" fill="#ffffff">trx0_ad9081_dac</text>
</g>
<!-- zcu102_gt1&#45;&gt;trx0_ad9081_dac -->
<g id="edge2" class="edge">
<title>zcu102_gt1&#45;&gt;trx0_ad9081_dac</title>
<path fill="none" stroke="#44cc44" d="M117.01,-353C152.06,-353 200.3,-353 240.74,-353"/>
<polygon fill="#44cc44" stroke="#44cc44" points="240.84,-356.5 250.84,-353 240.84,-349.5 240.84,-356.5"/>
<text text-anchor="middle" x="193.5" y="-356" font-family="Helvetica,sans-Serif" font-size="10.00" fill="#44cc44">JESD204</text>
</g>
<!-- gpio -->
<g id="node9" class="node">
<title>gpio</title>
<ellipse fill="#6e4d2a" stroke="#000000" cx="68" cy="-180" rx="30.59" ry="18"/>
<text text-anchor="middle" x="68" y="-176.3" font-family="Helvetica,sans-Serif" font-size="14.00" fill="#ffffff">gpio</text>
</g>
<!-- gpio&#45;&gt;trx0_ad9081 -->
<g id="edge3" class="edge">
<title>gpio&#45;&gt;trx0_ad9081</title>
<path fill="none" stroke="#cc9944" d="M83.83,-195.76C99.54,-211.2 125.92,-233.73 154,-243 187.34,-254.01 199.66,-254.01 233,-243 255.73,-235.5 277.34,-219.31 293.08,-205.23"/>
<polygon fill="#cc9944" stroke="#cc9944" points="295.8,-207.48 300.75,-198.11 291.04,-202.34 295.8,-207.48"/>
<text text-anchor="middle" x="193.5" y="-255" font-family="Helvetica,sans-Serif" font-size="10.00" fill="#cc9944">reset=133</text>
</g>
<!-- gpio&#45;&gt;trx0_ad9081 -->
<g id="edge4" class="edge">
<title>gpio&#45;&gt;trx0_ad9081</title>
<path fill="none" stroke="#cc9944" d="M93,-190.56C109.73,-197.33 132.77,-205.48 154,-209 188.64,-214.75 198.36,-214.75 233,-209 243.37,-207.28 254.18,-204.45 264.48,-201.22"/>
<polygon fill="#cc9944" stroke="#cc9944" points="265.76,-204.48 274.15,-198.02 263.56,-197.84 265.76,-204.48"/>
<text text-anchor="middle" x="193.5" y="-217" font-family="Helvetica,sans-Serif" font-size="10.00" fill="#cc9944">sysref&#45;req=121</text>
</g>
<!-- gpio&#45;&gt;trx0_ad9081 -->
<g id="edge5" class="edge">
<title>gpio&#45;&gt;trx0_ad9081</title>
<path fill="none" stroke="#cc9944" d="M99.04,-180C137.88,-180 206.49,-180 256.58,-180"/>
<polygon fill="#cc9944" stroke="#cc9944" points="256.65,-183.5 266.65,-180 256.65,-176.5 256.65,-183.5"/>
<text text-anchor="middle" x="193.5" y="-183" font-family="Helvetica,sans-Serif" font-size="10.00" fill="#cc9944">rx1&#45;enable=134</text>
</g>
<!-- gpio&#45;&gt;trx0_ad9081 -->
<g id="edge6" class="edge">
<title>gpio&#45;&gt;trx0_ad9081</title>
<path fill="none" stroke="#cc9944" d="M96.78,-173.83C113.31,-170.48 134.74,-166.69 154,-165 188.98,-161.94 198.02,-161.94 233,-165 240.77,-165.68 248.89,-166.7 256.9,-167.9"/>
<polygon fill="#cc9944" stroke="#cc9944" points="256.53,-171.39 266.95,-169.5 257.63,-164.47 256.53,-171.39"/>
<text text-anchor="middle" x="193.5" y="-168" font-family="Helvetica,sans-Serif" font-size="10.00" fill="#cc9944">rx2&#45;enable=135</text>
</g>
<!-- gpio&#45;&gt;trx0_ad9081 -->
<g id="edge7" class="edge">
<title>gpio&#45;&gt;trx0_ad9081</title>
<path fill="none" stroke="#cc9944" d="M93.44,-169.68C114.09,-161.17 142.13,-150.16 154,-148 188.54,-141.71 198.46,-141.71 233,-148 245.12,-150.21 257.76,-154.05 269.47,-158.32"/>
<polygon fill="#cc9944" stroke="#cc9944" points="268.47,-161.68 279.06,-161.98 270.97,-155.14 268.47,-161.68"/>
<text text-anchor="middle" x="193.5" y="-151" font-family="Helvetica,sans-Serif" font-size="10.00" fill="#cc9944">tx1&#45;enable=136</text>
</g>
<!-- gpio&#45;&gt;trx0_ad9081 -->
<g id="edge8" class="edge">
<title>gpio&#45;&gt;trx0_ad9081</title>
<path fill="none" stroke="#cc9944" d="M96.19,-172.78C109.11,-168.46 124.27,-162.02 136,-153 146.57,-144.88 142.07,-134.96 154,-129 185.4,-113.3 199.16,-119.63 233,-129 252.27,-134.34 271.56,-145.34 286.88,-155.76"/>
<polygon fill="#cc9944" stroke="#cc9944" points="285.22,-158.87 295.41,-161.78 289.26,-153.15 285.22,-158.87"/>
<text text-anchor="middle" x="193.5" y="-132" font-family="Helvetica,sans-Serif" font-size="10.00" fill="#cc9944">tx2&#45;enable=137</text>
</g>
</g>
</svg>
