<?xml version="1.0" encoding="UTF-8" standalone="no"?>
<!DOCTYPE svg PUBLIC "-//W3C//DTD SVG 1.1//EN"
 "http://www.w3.org/Graphics/SVG/1.1/DTD/svg11.dtd">
<!-- Generated by graphviz version 2.43.0 (0)
 -->
<!-- Title: ad9081_zcu102_spi_only_wiring Pages: 1 -->
<svg width="309pt" height="368pt"
 viewBox="0.00 0.00 309.00 368.00" xmlns="http://www.w3.org/2000/svg" xmlns:xlink="http://www.w3.org/1999/xlink">
<g id="graph0" class="graph" transform="scale(1 1) rotate(0) translate(4 364)">
<title>ad9081_zcu102_spi_only_wiring</title>
<polygon fill="#1a1a1a" stroke="transparent" points="-4,4 -4,-364 305,-364 305,4 -4,4"/>
<!-- spi0 -->
<g id="node1" class="node">
<title>spi0</title>
<ellipse fill="#2a4d6e" stroke="#000000" cx="68" cy="-18" rx="29.8" ry="18"/>
<text text-anchor="middle" x="68" y="-14.3" font-family="Helvetica,sans-Serif" font-size="14.00" fill="#ffffff">spi0</text>
</g>
<!-- hmc7044 -->
<g id="node2" class="node">
<title>hmc7044</title>
<path fill="#1a3d5c" stroke="#000000" d="M278.5,-36C278.5,-36 219.5,-36 219.5,-36 213.5,-36 207.5,-30 207.5,-24 207.5,-24 207.5,-12 207.5,-12 207.5,-6 213.5,0 219.5,0 219.5,0 278.5,0 278.5,0 284.5,0 290.5,-6 290.5,-12 290.5,-12 290.5,-24 290.5,-24 290.5,-30 284.5,-36 278.5,-36"/>
<text text-anchor="middle" x="249" y="-14.3" font-family="Helvetica,sans-Serif" font-size="14.00" fill="#ffffff">hmc7044</text>
</g>
<!-- spi0&#45;&gt;hmc7044 -->
<g id="edge1" class="edge">
<title>spi0&#45;&gt;hmc7044</title>
<path fill="none" stroke="#4ac4d8" d="M98.16,-18C124.98,-18 165.32,-18 197.4,-18"/>
<polygon fill="#4ac4d8" stroke="#4ac4d8" points="197.49,-21.5 207.49,-18 197.49,-14.5 197.49,-21.5"/>
<text text-anchor="middle" x="166.5" y="-21" font-family="Helvetica,sans-Serif" font-size="10.00" fill="#4ac4d8">cs=0</text>
</g>
<!-- spi1 -->
<g id="node3" class="node">
<title>spi1</title>
<ellipse fill="#2a4d6e" stroke="#000000" cx="68" cy="-72" rx="29.8" ry="18"/>
<text text-anchor="middle" x="68" y="-68.3" font-family="Helvetica,sans-Serif" font-size="14.00" fill="#ffffff">spi1</text>
</g>
<!-- trx0_ad9081 -->
<g id="node4" class="node">
<title>trx0_ad9081</title>
<path fill="#5c1a1a" stroke="#000000" d="M289,-90C289,-90 209,-90 209,-90 203,-90 197,-84 197,-78 197,-78 197,-66 197,-66 197,-60 203,-54 209,-54 209,-54 289,-54 289,-54 295,-54 301,-60 301,-66 301,-66 301,-78 301,-78 301,-84 295,-90 289,-90"/>
<text text-anchor="middle" x="249" y="-68.3" font-family="Helvetica,sans-Serif" font-size="14.00" fill="#ffffff">trx0_ad9081</text>
</g>
<!-- spi1&#45;&gt;trx0_ad9081 -->
<g id="edge2" class="edge">
<title>spi1&#45;&gt;trx0_ad9081</title>
<path fill="none" stroke="#4ac4d8" d="M98.16,-72C122,-72 156.52,-72 186.43,-72"/>
<polygon fill="#4ac4d8" stroke="#4ac4d8" points="186.79,-75.5 196.79,-72 186.79,-68.5 186.79,-75.5"/>
<text text-anchor="middle" x="166.5" y="-75" font-family="Helvetica,sans-Serif" font-size="10.00" fill="#4ac4d8">cs=0</text>
</g>
<!-- trx0_ad9081_adc -->
<g id="node5" class="node">
<title>trx0_ad9081_adc</title>
<path fill="#5c1a1a" stroke="#000000" d="M124,-144C124,-144 12,-144 12,-144 6,-144 0,-138 0,-132 0,-132 0,-120 0,-120 0,-114 6,-108 12,-108 12,-108 124,-108 124,-108 130,-108 136,-114 136,-120 136,-120 136,-132 136,-132 136,-138 130,-144 124,-144"/>
<text text-anchor="middle" x="68" y="-122.3" font-family="Helvetica,sans-Serif" font-size="14.00" fill="#ffffff">trx0_ad9081_adc</text>
</g>
<!-- zcu102_gt0 -->
<g id="node6" class="node">
<title>zcu102_gt0</title>
<path fill="#2a2a2a" stroke="#000000" d="M105,-198C105,-198 31,-198 31,-198 25,-198 19,-192 19,-186 19,-186 19,-174 19,-174 19,-168 25,-162 31,-162 31,-162 105,-162 105,-162 111,-162 117,-168 117,-174 117,-174 117,-186 117,-186 117,-192 111,-198 105,-198"/>
<text text-anchor="middle" x="68" y="-176.3" font-family="Helvetica,sans-Serif" font-size="14.00" fill="#ffffff">zcu102_gt0</text>
</g>
<!-- zcu102_gt1 -->
<g id="node7" class="node">
<title>zcu102_gt1</title>
<path fill="#2a2a2a" stroke="#000000" d="M105,-252C105,-252 31,-252 31,-252 25,-252 19,-246 19,-240 19,-240 19,-228 19,-228 19,-222 25,-216 31,-216 31,-216 105,-216 105,-216 111,-216 117,-222 117,-228 117,-228 117,-240 117,-240 117,-246 111,-252 105,-252"/>
<text text-anchor="middle" x="68" y="-230.3" font-family="Helvetica,sans-Serif" font-size="14.00" fill="#ffffff">zcu102_gt1</text>
</g>
<!-- trx0_ad9081_dac -->
<g id="node8" class="node">
<title>trx0_ad9081_dac</title>
<path fill="#5c1a1a" stroke="#000000" d="M124,-306C124,-306 12,-306 12,-306 6,-306 0,-300 0,-294 0,-294 0,-282 0,-282 0,-276 6,-270 12,-270 12,-270 124,-270 124,-270 130,-270 136,-276 136,-282 136,-282 136,-294 136,-294 136,-300 130,-306 124,-306"/>
<text text-anchor="middle" x="68" y="-284.3" font-family="Helvetica,sans-Serif" font-size="14.00" fill="#ffffff">trx0_ad9081_dac</text>
</g>
<!-- gpio -->
<g id="node9" class="node">
<title>gpio</title>
<ellipse fill="#6e4d2a" stroke="#000000" cx="68" cy="-342" rx="30.59" ry="18"/>
<text text-anchor="middle" x="68" y="-338.3" font-family="Helvetica,sans-Serif" font-size="14.00" fill="#ffffff">gpio</text>
</g>
</g>
</svg>
