<?xml version="1.0" encoding="UTF-8" standalone="no"?>
<!DOCTYPE svg PUBLIC "-//W3C//DTD SVG 1.1//EN"
 "http://www.w3.org/Graphics/SVG/1.1/DTD/svg11.dtd">
<!-- Generated by graphviz version 2.43.0 (0)
 -->
<!-- Title: clock_topology Pages: 1 -->
<svg width="514pt" height="302pt"
 viewBox="0.00 0.00 514.00 302.00" xmlns="http://www.w3.org/2000/svg" xmlns:xlink="http://www.w3.org/1999/xlink">
<g id="graph0" class="graph" transform="scale(1 1) rotate(0) translate(4 298)">
<title>clock_topology</title>
<polygon fill="#1e1e1e" stroke="transparent" points="-4,4 -4,-298 510,-298 510,4 -4,4"/>
<text text-anchor="middle" x="109.5" y="-281.2" font-family="monospace" font-size="11.00" fill="#d4d4d4">ad9081_zcu102 — clock topology</text>
<!-- axi_mxfe_rx_jesd_rx_axi -->
<g id="node1" class="node">
<title>axi_mxfe_rx_jesd_rx_axi</title>
<path fill="#1a4a20" stroke="black" d="M478,-243C478,-243 365,-243 365,-243 359,-243 353,-237 353,-231 353,-231 353,-219 353,-219 353,-213 359,-207 365,-207 365,-207 478,-207 478,-207 484,-207 490,-213 490,-219 490,-219 490,-231 490,-231 490,-237 484,-243 478,-243"/>
<text text-anchor="middle" x="421.5" y="-222.8" font-family="monospace" font-size="9.00" fill="white">axi_mxfe_rx_jesd_rx_axi</text>
</g>
<!-- axi_mxfe_rx_xcvr -->
<g id="node2" class="node">
<title>axi_mxfe_rx_xcvr</title>
<path fill="#4a1a5c" stroke="black" d="M225,-243C225,-243 148,-243 148,-243 142,-243 136,-237 136,-231 136,-231 136,-219 136,-219 136,-213 142,-207 148,-207 148,-207 225,-207 225,-207 231,-207 237,-213 237,-219 237,-219 237,-231 237,-231 237,-237 231,-243 225,-243"/>
<text text-anchor="middle" x="186.5" y="-222.8" font-family="monospace" font-size="9.00" fill="white">axi_mxfe_rx_xcvr</text>
</g>
<!-- axi_mxfe_rx_xcvr&#45;&gt;axi_mxfe_rx_jesd_rx_axi -->
<g id="edge4" class="edge">
<title>axi_mxfe_rx_xcvr&#45;&gt;axi_mxfe_rx_jesd_rx_axi</title>
<path fill="none" stroke="#44cc44" d="M237.2,-225C268.77,-225 310.24,-225 345.74,-225"/>
<polygon fill="#44cc44" stroke="#44cc44" points="345.76,-227.45 352.76,-225 345.76,-222.55 345.76,-227.45"/>
<text text-anchor="middle" x="287" y="-227.6" font-family="monospace" font-size="8.00" fill="#44cc44">lane_clk[0]</text>
</g>
<!-- axi_mxfe_tx_jesd_tx_axi -->
<g id="node3" class="node">
<title>axi_mxfe_tx_jesd_tx_axi</title>
<path fill="#1a4a20" stroke="black" d="M478,-144C478,-144 365,-144 365,-144 359,-144 353,-138 353,-132 353,-132 353,-120 353,-120 353,-114 359,-108 365,-108 365,-108 478,-108 478,-108 484,-108 490,-114 490,-120 490,-120 490,-132 490,-132 490,-138 484,-144 478,-144"/>
<text text-anchor="middle" x="421.5" y="-123.8" font-family="monospace" font-size="9.00" fill="white">axi_mxfe_tx_jesd_tx_axi</text>
</g>
<!-- axi_mxfe_tx_xcvr -->
<g id="node4" class="node">
<title>axi_mxfe_tx_xcvr</title>
<path fill="#4a1a5c" stroke="black" d="M225,-90C225,-90 148,-90 148,-90 142,-90 136,-84 136,-78 136,-78 136,-66 136,-66 136,-60 142,-54 148,-54 148,-54 225,-54 225,-54 231,-54 237,-60 237,-66 237,-66 237,-78 237,-78 237,-84 231,-90 225,-90"/>
<text text-anchor="middle" x="186.5" y="-69.8" font-family="monospace" font-size="9.00" fill="white">axi_mxfe_tx_xcvr</text>
</g>
<!-- axi_mxfe_tx_xcvr&#45;&gt;axi_mxfe_tx_jesd_tx_axi -->
<g id="edge7" class="edge">
<title>axi_mxfe_tx_xcvr&#45;&gt;axi_mxfe_tx_jesd_tx_axi</title>
<path fill="none" stroke="#44cc44" d="M237.2,-83.52C268.77,-90.84 310.24,-100.45 345.74,-108.67"/>
<polygon fill="#44cc44" stroke="#44cc44" points="345.38,-111.11 352.76,-110.3 346.49,-106.33 345.38,-111.11"/>
<text text-anchor="middle" x="287" y="-104.6" font-family="monospace" font-size="8.00" fill="#44cc44">lane_clk[0]</text>
</g>
<!-- hmc7044 -->
<g id="node5" class="node">
<title>hmc7044</title>
<path fill="#1a3d5c" stroke="black" d="M42,-144C42,-144 12,-144 12,-144 6,-144 0,-138 0,-132 0,-132 0,-120 0,-120 0,-114 6,-108 12,-108 12,-108 42,-108 42,-108 48,-108 54,-114 54,-120 54,-120 54,-132 54,-132 54,-138 48,-144 42,-144"/>
<text text-anchor="middle" x="27" y="-123.8" font-family="monospace" font-size="9.00" fill="white">hmc7044</text>
</g>
<!-- hmc7044&#45;&gt;axi_mxfe_rx_jesd_rx_axi -->
<g id="edge3" class="edge">
<title>hmc7044&#45;&gt;axi_mxfe_rx_jesd_rx_axi</title>
<path fill="none" stroke="#4a9eff" d="M36.03,-144.06C50.68,-174.29 85.04,-233.64 136,-252 210.46,-278.83 302.59,-261.74 361.45,-245.05"/>
<polygon fill="#4a9eff" stroke="#4a9eff" points="362.42,-247.32 368.46,-243.02 361.06,-242.61 362.42,-247.32"/>
<text text-anchor="middle" x="186.5" y="-267.6" font-family="monospace" font-size="8.00" fill="#4a9eff">device_clk[0]</text>
</g>
<!-- hmc7044&#45;&gt;axi_mxfe_rx_xcvr -->
<g id="edge8" class="edge">
<title>hmc7044&#45;&gt;axi_mxfe_rx_xcvr</title>
<path fill="none" stroke="#cc9944" d="M53.77,-144.12C75.39,-159.09 107.26,-180.63 136,-198 138.93,-199.77 141.99,-201.57 145.09,-203.34"/>
<polygon fill="#cc9944" stroke="#cc9944" points="144.16,-205.63 151.46,-206.95 146.57,-201.37 144.16,-205.63"/>
<text text-anchor="middle" x="95" y="-188.6" font-family="monospace" font-size="8.00" fill="#cc9944">conv[2]</text>
</g>
<!-- hmc7044&#45;&gt;axi_mxfe_tx_jesd_tx_axi -->
<g id="edge6" class="edge">
<title>hmc7044&#45;&gt;axi_mxfe_tx_jesd_tx_axi</title>
<path fill="none" stroke="#4a9eff" d="M54.06,-126C112.65,-126 256.64,-126 345.68,-126"/>
<polygon fill="#4a9eff" stroke="#4a9eff" points="345.79,-128.45 352.79,-126 345.79,-123.55 345.79,-128.45"/>
<text text-anchor="middle" x="186.5" y="-128.6" font-family="monospace" font-size="8.00" fill="#4a9eff">device_clk[6]</text>
</g>
<!-- hmc7044&#45;&gt;axi_mxfe_tx_xcvr -->
<g id="edge10" class="edge">
<title>hmc7044&#45;&gt;axi_mxfe_tx_xcvr</title>
<path fill="none" stroke="#cc9944" d="M54.09,-111.19C59.88,-108.24 66.06,-105.33 72,-103 90.04,-95.92 110.31,-89.82 128.67,-84.96"/>
<polygon fill="#cc9944" stroke="#cc9944" points="129.71,-87.22 135.87,-83.09 128.48,-82.48 129.71,-87.22"/>
<text text-anchor="middle" x="95" y="-105.6" font-family="monospace" font-size="8.00" fill="#cc9944">conv[12]</text>
</g>
<!-- trx0_ad9081 -->
<g id="node6" class="node">
<title>trx0_ad9081</title>
<path fill="#5c1a1a" stroke="black" d="M211.5,-36C211.5,-36 161.5,-36 161.5,-36 155.5,-36 149.5,-30 149.5,-24 149.5,-24 149.5,-12 149.5,-12 149.5,-6 155.5,0 161.5,0 161.5,0 211.5,0 211.5,0 217.5,0 223.5,-6 223.5,-12 223.5,-12 223.5,-24 223.5,-24 223.5,-30 217.5,-36 211.5,-36"/>
<text text-anchor="middle" x="186.5" y="-20.8" font-family="monospace" font-size="9.00" fill="white">trx0_ad9081</text>
<text text-anchor="middle" x="186.5" y="-10.8" font-family="monospace" font-size="9.00" fill="white">(ad9081)</text>
</g>
<!-- hmc7044&#45;&gt;trx0_ad9081 -->
<g id="edge1" class="edge">
<title>hmc7044&#45;&gt;trx0_ad9081</title>
<path fill="none" stroke="#888888" d="M40.31,-107.98C48.39,-97.14 59.7,-83.61 72,-74 93.35,-57.31 120.47,-43.71 142.85,-34.09"/>
<polygon fill="#888888" stroke="#888888" points="143.83,-36.33 149.32,-31.35 141.92,-31.82 143.83,-36.33"/>
<text text-anchor="middle" x="95" y="-76.6" font-family="monospace" font-size="8.00" fill="#888888">dev_clk[2]</text>
</g>
<!-- tx_mxfe_tpl_core_dac_tpl_core -->
<g id="node7" class="node">
<title>tx_mxfe_tpl_core_dac_tpl_core</title>
<path fill="#2a2a2a" stroke="black" d="M494,-36C494,-36 349,-36 349,-36 343,-36 337,-30 337,-24 337,-24 337,-12 337,-12 337,-6 343,0 349,0 349,0 494,0 494,0 500,0 506,-6 506,-12 506,-12 506,-24 506,-24 506,-30 500,-36 494,-36"/>
<text text-anchor="middle" x="421.5" y="-15.8" font-family="monospace" font-size="9.00" fill="white">tx_mxfe_tpl_core_dac_tpl_core</text>
</g>
<!-- trx0_ad9081&#45;&gt;tx_mxfe_tpl_core_dac_tpl_core -->
<g id="edge9" class="edge">
<title>trx0_ad9081&#45;&gt;tx_mxfe_tpl_core_dac_tpl_core</title>
<path fill="none" stroke="#cc44cc" d="M223.65,-18C251.93,-18 292.53,-18 329.52,-18"/>
<polygon fill="#cc44cc" stroke="#cc44cc" points="329.86,-20.45 336.86,-18 329.86,-15.55 329.86,-20.45"/>
<text text-anchor="middle" x="287" y="-20.6" font-family="monospace" font-size="8.00" fill="#cc44cc">sampl_clk[1]</text>
</g>
<!-- zynqmp_clk -->
<g id="node8" class="node">
<title>zynqmp_clk</title>
<ellipse fill="#7a3800" stroke="black" cx="186.5" cy="-171" rx="39.67" ry="18"/>
<text text-anchor="middle" x="186.5" y="-168.8" font-family="monospace" font-size="9.00" fill="white">zynqmp_clk</text>
</g>
<!-- zynqmp_clk&#45;&gt;axi_mxfe_rx_jesd_rx_axi -->
<g id="edge2" class="edge">
<title>zynqmp_clk&#45;&gt;axi_mxfe_rx_jesd_rx_axi</title>
<path fill="none" stroke="#555555" stroke-dasharray="5,2" d="M222.38,-179.08C254.85,-186.61 304.32,-198.07 345.7,-207.66"/>
<polygon fill="#555555" stroke="#555555" points="345.16,-210.05 352.53,-209.25 346.27,-205.28 345.16,-210.05"/>
<text text-anchor="middle" x="287" y="-203.6" font-family="monospace" font-size="8.00" fill="#666666">s_axi_aclk[71]</text>
</g>
<!-- zynqmp_clk&#45;&gt;axi_mxfe_tx_jesd_tx_axi -->
<g id="edge5" class="edge">
<title>zynqmp_clk&#45;&gt;axi_mxfe_tx_jesd_tx_axi</title>
<path fill="none" stroke="#555555" stroke-dasharray="5,2" d="M223.4,-164.07C255.86,-157.8 304.69,-148.37 345.63,-140.46"/>
<polygon fill="#555555" stroke="#555555" points="346.24,-142.84 352.65,-139.1 345.32,-138.03 346.24,-142.84"/>
<text text-anchor="middle" x="287" y="-159.6" font-family="monospace" font-size="8.00" fill="#666666">s_axi_aclk[71]</text>
</g>
</g>
</svg>
